<?xml version="1.0" encoding="utf-8"?>
<!-- Generator: Adobe Illustrator 19.2.0, SVG Export Plug-In . SVG Version: 6.00 Build 0)  -->
<svg version="1.1" id="Layer_1" xmlns="http://www.w3.org/2000/svg" xmlns:xlink="http://www.w3.org/1999/xlink" x="0px" y="0px"
	 width="88.74px" height="88.74px" viewBox="0 0 88.74 88.74" enable-background="new 0 0 88.74 88.74" xml:space="preserve">
<g>
	<rect fill="#687EB8" width="88.74" height="88.74"/>
	<path fill="#FFFFFF" d="M55.664,34.635l-8.003,0.069l-0.046-5.254c-0.019-1.967,1.283-2.443,2.206-2.449
		c0.917-0.008,5.647-0.045,5.647-0.045l-0.075-8.668l-7.78,0.036c-8.63,0.075-10.543,6.556-10.506,10.692l0.049,5.774l-4.995,0.048
		l0.077,8.927l4.995-0.043c0.096,11.461,0.218,25.271,0.218,25.271l10.505-0.089c0,0-0.121-13.944-0.218-25.276l7.09-0.059
		L55.664,34.635z"/>
	<rect fill="#687EB8" width="88.74" height="88.74"/>
	<path fill="#FFFFFF" d="M55.664,34.635l-8.003,0.069l-0.046-5.254c-0.019-1.967,1.283-2.443,2.206-2.449
		c0.917-0.008,5.647-0.045,5.647-0.045l-0.075-8.668l-7.78,0.036c-8.63,0.075-10.543,6.556-10.506,10.692l0.049,5.774l-4.995,0.048
		l0.077,8.927l4.995-0.043c0.096,11.461,0.218,25.271,0.218,25.271l10.505-0.089c0,0-0.121-13.944-0.218-25.276l7.09-0.059
		L55.664,34.635z"/>
</g>
<g>
	<rect x="0" y="583.863" fill="#94C6E7" width="88.74" height="88.74"/>
	<g>
		<g>
			<path fill="#FFFFFF" d="M68.761,610.822c-1.874,0.917-3.873,1.512-5.982,1.787c2.146-1.396,3.796-3.588,4.57-6.212
				c-2.008,1.284-4.243,2.209-6.618,2.751c-1.904-2.184-4.626-3.545-7.612-3.526c-5.754,0.02-10.408,5.051-10.38,11.252
				c0.001,0.874,0.096,1.732,0.27,2.547c-8.647-0.419-16.352-4.877-21.517-11.633c-0.887,1.655-1.394,3.582-1.387,5.646
				c0.014,3.886,1.866,7.33,4.675,9.304c-1.715-0.064-3.32-0.536-4.73-1.377c0,0.045,0.003,0.102,0,0.152
				c0.021,5.427,3.627,9.941,8.401,10.969c-0.878,0.261-1.797,0.376-2.754,0.375c-0.673,0.006-1.309-0.035-1.949-0.188
				c1.338,4.47,5.196,7.707,9.753,7.754c-3.554,3.037-8.038,4.827-12.918,4.848c-0.842-0.004-1.681-0.048-2.491-0.145
				c4.623,3.174,10.092,5.02,15.992,5c19.161-0.063,29.592-17.202,29.542-32.025c-0.008-0.472-0.019-0.954-0.042-1.437
				C65.612,615.056,67.375,613.073,68.761,610.822z"/>
		</g>
	</g>
	<rect x="0" y="583.863" fill="#94C6E7" width="88.74" height="88.74"/>
	<g>
		<g>
			<path fill="#FFFFFF" d="M68.761,610.822c-1.874,0.917-3.873,1.512-5.982,1.787c2.146-1.396,3.796-3.588,4.57-6.212
				c-2.008,1.284-4.243,2.209-6.618,2.751c-1.904-2.184-4.626-3.545-7.612-3.526c-5.754,0.02-10.408,5.051-10.38,11.252
				c0.001,0.874,0.096,1.732,0.27,2.547c-8.647-0.419-16.352-4.877-21.517-11.633c-0.887,1.655-1.394,3.582-1.387,5.646
				c0.014,3.886,1.866,7.33,4.675,9.304c-1.715-0.064-3.32-0.536-4.73-1.377c0,0.045,0.003,0.102,0,0.152
				c0.021,5.427,3.627,9.941,8.401,10.969c-0.878,0.261-1.797,0.376-2.754,0.375c-0.673,0.006-1.309-0.035-1.949-0.188
				c1.338,4.47,5.196,7.707,9.753,7.754c-3.554,3.037-8.038,4.827-12.918,4.848c-0.842-0.004-1.681-0.048-2.491-0.145
				c4.623,3.174,10.092,5.02,15.992,5c19.161-0.063,29.592-17.202,29.542-32.025c-0.008-0.472-0.019-0.954-0.042-1.437
				C65.612,615.056,67.375,613.073,68.761,610.822z"/>
		</g>
	</g>
</g>
<g>
	<rect x="151.006" y="583.863" fill="#9E2920" width="88.74" height="88.74"/>
	<g>
		<path fill="#FFFFFF" d="M198.304,635.157c-1.362-1.025-3.949-3.486-3.914-4.889c0.051-1.648,0.544-2.447,3.074-4.318
			c2.597-1.906,4.472-4.65,4.567-7.896c0.108-3.863-1.505-7.682-4.697-9.016l4.863,0.137l3.507-2.387l-15.362-0.432
			c-6.886-0.191-13.515,4.844-13.684,10.891c-0.172,6.176,4.379,11.291,11.387,11.488c0.487,0.012,0.961,0.016,1.426,0
			c-0.481,0.852-0.834,1.826-0.863,2.838c-0.051,1.725,0.837,3.145,1.979,4.309c-0.891-0.025-1.747-0.025-2.67-0.051
			c-8.532-0.242-15.25,5.01-15.409,10.648c-0.156,5.543,6.951,9.217,15.476,9.455c9.729,0.277,15.253-5.09,15.406-10.637
			C203.52,640.843,202.279,638.142,198.304,635.157z M190.307,627.226c-3.95-0.223-7.593-4.643-8.125-9.859
			c-0.541-5.219,2.228-9.119,6.18-8.891c3.953,0.236,7.597,4.506,8.134,9.725C197.035,623.417,194.266,627.458,190.307,627.226z
			 M188.022,653.482c-5.9-0.166-10.053-4.018-9.926-8.504c0.124-4.394,5.509-7.904,11.406-7.67c1.374,0.051,2.657,0.309,3.803,0.717
			c3.138,2.32,5.397,3.637,5.977,6.195c0.105,0.52,0.159,1.047,0.149,1.588C199.3,650.296,196.315,653.716,188.022,653.482z"/>
		<polygon fill="#FFFFFF" points="214.875,628.372 215.043,622.396 210.232,622.261 210.06,628.237 204.077,628.065 
			203.944,632.884 209.926,633.054 209.76,639.036 214.573,639.167 214.745,633.19 220.721,633.362 220.854,628.544 		"/>
	</g>
</g>
<rect x="459.506" y="583.863" fill="#712219" width="88.74" height="88.74"/>
<g>
	<rect x="307.006" y="583.863" fill="#E7E7E6" width="88.74" height="88.74"/>
	<rect x="307.006" y="630.146" fill="#9E2920" width="88.74" height="42.458"/>
	<g>
		<g>
			
				<linearGradient id="SVGID_1_" gradientUnits="userSpaceOnUse" x1="200.892" y1="-184.1226" x2="200.892" y2="-189.2003" gradientTransform="matrix(1 0 0 -1 148.7305 730.0305)">
				<stop  offset="0" style="stop-color:#FFFFFF"/>
				<stop  offset="1" style="stop-color:#030104"/>
			</linearGradient>
			<path fill="url(#SVGID_1_)" d="M347.763,621.151c0,0.586,0.157,1.035,0.465,1.355c0.309,0.322,0.752,0.481,1.329,0.481
				c0.589,0,1.055-0.164,1.401-0.488c0.352-0.328,0.525-0.778,0.525-1.348v-11.604c0-0.465-0.178-0.841-0.53-1.128
				c-0.354-0.286-0.819-0.429-1.396-0.429c-0.533,0-0.963,0.143-1.296,0.429c-0.33,0.287-0.498,0.663-0.498,1.128V621.151z"/>
		</g>
		<g>
			
				<linearGradient id="SVGID_2_" gradientUnits="userSpaceOnUse" x1="185.9853" y1="134.5568" x2="185.9853" y2="105.6818" gradientTransform="matrix(1 0 0 -1 148.731 730.0305)">
				<stop  offset="0" style="stop-color:#555451"/>
				<stop  offset="0.9944" style="stop-color:#3C3A34"/>
			</linearGradient>
			<polygon fill="url(#SVGID_2_)" points="326.499,595.474 331.434,595.474 334.612,607.017 334.92,607.017 337.953,595.474 
				342.934,595.474 337.228,612.367 337.228,624.349 332.332,624.349 332.332,612.908 			"/>
			
				<linearGradient id="SVGID_3_" gradientUnits="userSpaceOnUse" x1="200.8689" y1="127.5216" x2="200.8689" y2="105.1447" gradientTransform="matrix(1 0 0 -1 148.731 730.0305)">
				<stop  offset="0" style="stop-color:#555451"/>
				<stop  offset="0.9944" style="stop-color:#3C3A34"/>
			</linearGradient>
			<path fill="url(#SVGID_3_)" d="M343.286,607.918c0-1.651,0.584-2.966,1.758-3.942c1.168-0.977,2.746-1.467,4.724-1.467
				c1.802,0,3.276,0.517,4.431,1.547c1.142,1.029,1.715,2.358,1.715,3.982v11.003c0,1.823-0.563,3.249-1.686,4.288
				c-1.133,1.036-2.684,1.557-4.661,1.557c-1.905,0-3.428-0.537-4.569-1.605c-1.142-1.071-1.712-2.512-1.712-4.322V607.918z
				 M347.763,619.36c0,0.584,0.157,1.033,0.465,1.355c0.309,0.322,0.752,0.481,1.329,0.481c0.589,0,1.055-0.166,1.401-0.488
				c0.352-0.33,0.525-0.779,0.525-1.348v-11.604c0-0.465-0.178-0.841-0.53-1.128c-0.354-0.288-0.819-0.429-1.396-0.429
				c-0.533,0-0.963,0.141-1.296,0.429c-0.33,0.287-0.498,0.663-0.498,1.128V619.36z"/>
			
				<linearGradient id="SVGID_4_" gradientUnits="userSpaceOnUse" x1="216.9235" y1="126.9826" x2="216.9235" y2="105.3732" gradientTransform="matrix(1 0 0 -1 148.731 730.0305)">
				<stop  offset="0" style="stop-color:#555451"/>
				<stop  offset="0.9944" style="stop-color:#3C3A34"/>
			</linearGradient>
			<path fill="url(#SVGID_4_)" d="M371.865,603.048v21.301h-4.355v-2.354c-0.793,0.866-1.631,1.53-2.502,1.983
				c-0.869,0.45-1.708,0.679-2.521,0.679c-1.015,0-1.764-0.318-2.278-0.955c-0.506-0.633-0.763-1.585-0.763-2.854v-17.801h4.345
				v16.328c0,0.506,0.1,0.869,0.284,1.094c0.176,0.227,0.476,0.342,0.882,0.342c0.317,0,0.728-0.15,1.218-0.447
				c0.487-0.302,0.933-0.682,1.336-1.15v-16.166H371.865z"/>
		</g>
		<g>
			<path fill="#FFFFFF" d="M336.167,635.993h-13.367v3.807h4.507v22.402h4.355V639.8h4.504V635.993z"/>
			<path fill="#FFFFFF" d="M345.044,657.552c-0.368,0.418-0.763,0.766-1.204,1.035c-0.433,0.273-0.795,0.409-1.074,0.409
				c-0.363,0-0.628-0.103-0.795-0.312c-0.157-0.199-0.241-0.532-0.241-0.988v-14.834h-3.861v16.17c0,1.154,0.228,2.011,0.677,2.591
				c0.457,0.576,1.123,0.862,2.021,0.862c0.728,0,1.475-0.202,2.243-0.617c0.777-0.41,1.515-1.002,2.235-1.791v2.125h3.863v-19.34
				h-3.863V657.552z"/>
			<path fill="#FFFFFF" d="M361.96,643.862c-0.644-0.819-1.577-1.233-2.803-1.233c-0.6,0-1.193,0.151-1.783,0.457
				c-0.582,0.304-1.134,0.761-1.656,1.343v-8.436h-3.907v26.209h3.907v-1.482c0.503,0.592,1.061,1.027,1.653,1.308
				c0.587,0.284,1.261,0.421,2.021,0.421c1.145,0,2.023-0.363,2.627-1.092c0.606-0.731,0.906-1.784,0.906-3.151v-10.733
				C362.926,645.89,362.607,644.688,361.96,643.862z M358.947,657.675c0,0.621-0.114,1.06-0.335,1.332
				c-0.225,0.273-0.568,0.408-1.045,0.408c-0.325,0-0.633-0.07-0.931-0.208c-0.297-0.136-0.606-0.368-0.917-0.682v-12.047
				c0.262-0.27,0.527-0.468,0.795-0.59c0.271-0.131,0.543-0.188,0.82-0.188c0.522,0,0.922,0.164,1.204,0.5
				c0.276,0.338,0.409,0.833,0.409,1.488V657.675z"/>
			<path fill="#FFFFFF" d="M376.331,652.993v-4.93c0-1.831-0.471-3.234-1.423-4.213c-0.95-0.979-2.31-1.471-4.082-1.471
				c-1.731,0-3.133,0.529-4.229,1.583c-1.093,1.058-1.645,2.429-1.645,4.101v8.688c0,1.861,0.503,3.326,1.496,4.388
				c0.993,1.06,2.359,1.591,4.09,1.591c1.926,0,3.374-0.495,4.336-1.496c0.977-1.005,1.456-2.502,1.456-4.482v-0.993h-3.974v0.884
				c0,1.135-0.135,1.869-0.384,2.2c-0.257,0.336-0.706,0.503-1.344,0.503c-0.617,0-1.055-0.191-1.312-0.586
				c-0.254-0.396-0.379-1.1-0.379-2.117v-3.648H376.331z M368.937,648.032c0-0.807,0.13-1.393,0.4-1.734
				c0.271-0.357,0.709-0.531,1.326-0.531c0.587,0,1.022,0.174,1.285,0.531c0.271,0.342,0.408,0.928,0.408,1.734v1.953h-3.419
				V648.032z"/>
		</g>
	</g>
</g>
<path fill-rule="evenodd" clip-rule="evenodd" fill="#FFFFFF" d="M512.624,627.777c0.517-0.166,0.817-0.261,1.118-0.356
	c7.032-2.293,11.681-7.835,10.56-15.926c-0.487-3.524-1.988-6.322-5.237-8.015c-2.437-1.268-5.074-1.785-7.774-1.884
	c-3.264-0.119-6.533-0.097-9.801-0.103c-5.853-0.014-11.708,0.009-17.561-0.016c-0.685-0.002-1.012,0.152-0.906,0.881
	c0.036,0.247,0.037,0.508,0,0.754c-0.109,0.724,0.207,0.898,0.895,0.882c1.76-0.046,3.521,0.019,5.278-0.031
	c0.69-0.02,0.826,0.215,0.826,0.856c-0.018,15.441-0.018,30.885,0,46.328c0,0.644-0.142,0.883-0.829,0.854
	c-1.613-0.065-3.234,0.015-4.843-0.093c-1.067-0.072-1.395,0.205-1.375,1.322c0.019,1.078,0.241,1.409,1.39,1.403
	c8.403-0.046,16.808-0.071,25.21,0.037c2.788,0.036,5.271-0.682,7.729-1.879c7.194-3.506,8.979-14.068,5.216-19.574
	C520.188,629.808,516.759,628.446,512.624,627.777z M498.205,605.048c-0.007-0.969,0.25-1.184,1.186-1.163
	c2.832,0.067,5.67,0.118,8.499,0c3.284-0.136,5.476,1.444,6.658,4.282c1.892,4.539,1.772,9.149-0.269,13.65
	c-0.863,1.902-2.399,3.172-4.232,4.105l0,0c-0.503,0.141-1.005,0.282-1.509,0.424c-0.284,0.018-0.57,0.037-0.856,0.056
	c-2.899,0-5.8-0.021-8.697,0.018c-0.671,0.009-0.848-0.182-0.837-0.839c0.035-2.112,0.002-4.225-0.005-6.337
	C498.173,614.512,498.234,609.779,498.205,605.048z M498.213,628.993c0.002,0,0.002,0,0.002,0S498.215,628.993,498.213,628.993
	L498.213,628.993z M515.05,645.853c-1.278,3.933-4.228,6.119-8.349,6.134c-2.475,0.009-4.951-0.036-7.426,0.02
	c-0.842,0.021-1.066-0.206-1.063-1.058c0.03-7.319,0.008-14.637,0.001-21.955c3.803-0.022,7.605-0.046,11.407-0.068
	c4.218,1.11,5.365,4.543,5.959,8.209C516.049,640.038,515.981,642.988,515.05,645.853z"/>
</svg>
