<svg xmlns="http://www.w3.org/2000/svg" width="300" height="95" viewBox="0 0 300 95"><path fill="#DF790C" d="M105.362 53.352H85.323L81.754 64.79H69.952L89.916 10h11.512l19.671 54.79h-12.021l-3.716-11.438zm-9.909-30.164h-.148l-6.921 21.274h14.064l-6.995-21.274zm37.764-3.425h-14.425V10h39.782v9.763h-14.427V64.79h-10.931V19.763zm64.359 6.848h-.148l-9.033 38.179h-11.584L162.674 10h11.659l8.522 40.291h.148L191.6 10h11.806l8.959 40.291h.146L220.456 10h11.581l-13.989 54.79h-11.583l-8.889-38.179z"/><path fill="#FFF" d="M75.593 70.155h1.688l5.555 14.761h-1.864l-1.472-4.16h-6.125l-1.472 4.16h-1.864l5.554-14.761zm.863 2.079h-.039l-2.493 7.029h5.025l-2.493-7.029zm8.017 2.868h1.492v2.16h.039c.393-1.042 1.178-2.317 2.827-2.317h.549v1.608h-.491c-2.002 0-2.886 1.375-2.886 3.69v4.673h-1.531v-9.814zm11.094 10.089c-3.554 0-5.064-2.571-5.064-5.183 0-2.61 1.767-5.183 5.064-5.183 3.553 0 5.063 2.572 5.063 5.183.001 2.612-1.765 5.183-5.063 5.183zm0-1.376c2.12 0 3.415-1.589 3.415-3.807S97.687 76.2 95.567 76.2c-2.121 0-3.416 1.59-3.416 3.808s1.295 3.807 3.416 3.807zm13.924-.45h-.04c-.668 1.256-1.728 1.826-3.122 1.826-1.433 0-3.278-.727-3.278-3.633v-6.457h1.531v6.046c0 2.04 1.06 2.668 2.159 2.668 1.433 0 2.749-1.099 2.749-3.141v-5.573h1.531v9.814h-1.531v-1.55zm10.92-4.377c0-2.041-1.061-2.67-2.159-2.67-1.433 0-2.749 1.099-2.749 3.141v5.457h-1.531v-9.814h1.531v1.669h.039c.667-1.257 1.728-1.826 3.122-1.826 1.177 0 3.278.608 3.278 3.376v6.596h-1.531v-5.929zm11.999 4.219h-.04c-.451.767-1.256 1.984-3.277 1.984-2.709 0-4.731-2.12-4.731-5.183 0-3.611 2.493-5.064 4.535-5.064 2.179 0 3.062 1.236 3.474 1.864h.04v-6.653h1.531v14.761h-1.531v-1.709zm-3.22-6.889c-1.688 0-3.18 1.138-3.18 3.729 0 2.043 1.06 3.769 3.121 3.769 2.062 0 3.278-1.667 3.278-3.728.001-2.573-1.589-3.77-3.219-3.77zm16.323-4.672h-4.476v-1.491h10.601v1.491h-4.476v13.27h-1.649v-13.27zm14.199 7.342c0-2.041-1.061-2.67-2.161-2.67-1.432 0-2.748 1.099-2.748 3.141v5.457h-1.531V70.155h1.531v6.615h.039c.667-1.257 1.729-1.826 3.122-1.826 1.176 0 3.277.608 3.277 3.376v6.596h-1.529v-5.928zm13.079 3.16c-.845 1.865-2.258 3.043-4.516 3.043-2.748 0-4.613-2.082-4.613-4.811 0-3.297 1.806-5.555 4.691-5.555 2.786 0 4.692 1.768 4.692 5.104v.434h-7.736c0 2.277 1.395 3.452 3.044 3.452 1.768 0 2.532-1.099 2.867-1.902l1.571.235zm-1.395-3.043c-.218-1.785-1.236-2.904-3.004-2.904-2.003 0-2.925 1.569-3.043 2.904h6.047zm16.988-6.516h-.038l-3.554 12.327h-1.491l-3.906-14.761h1.745l2.905 12.208h.041l3.515-12.208h1.529l3.515 12.308h.039l2.904-12.308h1.748l-3.905 14.761h-1.491l-3.556-12.327zm14.535 12.602c-3.551 0-5.063-2.571-5.063-5.183 0-2.61 1.768-5.183 5.063-5.183 3.556 0 5.065 2.572 5.065 5.183 0 2.612-1.765 5.183-5.065 5.183zm0-1.376c2.121 0 3.417-1.589 3.417-3.807s-1.296-3.808-3.417-3.808c-2.119 0-3.415 1.59-3.415 3.808s1.296 3.807 3.415 3.807zm7.486-8.713h1.494v2.16h.038c.393-1.042 1.178-2.317 2.826-2.317h.549v1.608h-.489c-2.004 0-2.886 1.375-2.886 3.69v4.673h-1.532v-9.814zm6.503-4.947h1.53v14.761h-1.53V70.155zm11.937 13.052h-.041c-.451.767-1.258 1.984-3.277 1.984-2.711 0-4.731-2.12-4.731-5.183 0-3.611 2.494-5.064 4.533-5.064 2.181 0 3.062 1.236 3.476 1.864h.041v-6.653h1.531v14.761h-1.531v-1.709zm-3.219-6.889c-1.691 0-3.182 1.138-3.182 3.729 0 2.043 1.059 3.769 3.12 3.769 2.062 0 3.28-1.667 3.28-3.728.001-2.573-1.591-3.77-3.218-3.77z"/></svg>